<svg width="126" height="25" viewBox="0 0 126 25" fill="none" xmlns="http://www.w3.org/2000/svg">
<path d="M20.544 1.344C20.4587 2.432 20.3947 3.47733 20.352 4.48C20.3307 5.48267 20.32 6.25067 20.32 6.784C20.32 7.25333 20.3307 7.70133 20.352 8.128C20.3733 8.55467 20.3947 8.91733 20.416 9.216H19.68C19.3387 7.424 18.9013 6.00533 18.368 4.96C17.856 3.91467 17.2373 3.17867 16.512 2.752C15.7867 2.304 14.9333 2.08 13.952 2.08H13.216V20.352C13.216 21.2053 13.3013 21.8453 13.472 22.272C13.664 22.6987 14.0053 22.9867 14.496 23.136C14.9867 23.264 15.7013 23.3387 16.64 23.36V24C15.9787 23.9787 15.0933 23.9573 13.984 23.936C12.896 23.9147 11.7547 23.904 10.56 23.904C9.38667 23.904 8.27733 23.9147 7.232 23.936C6.18667 23.9573 5.344 23.9787 4.704 24V23.36C5.664 23.3387 6.38933 23.264 6.88 23.136C7.37067 22.9867 7.70133 22.6987 7.872 22.272C8.04267 21.8453 8.128 21.2053 8.128 20.352V2.08H7.424C6.44267 2.08 5.58933 2.304 4.864 2.752C4.13867 3.17867 3.52 3.91467 3.008 4.96C2.496 5.984 2.048 7.40267 1.664 9.216H0.928C0.970667 8.91733 0.992 8.55467 0.992 8.128C1.01333 7.70133 1.024 7.25333 1.024 6.784C1.024 6.25067 1.00267 5.48267 0.96 4.48C0.938667 3.47733 0.885333 2.432 0.8 1.344C1.78133 1.36533 2.848 1.38667 4 1.408C5.17333 1.42933 6.34667 1.44 7.52 1.44C8.69333 1.44 9.74933 1.44 10.688 1.44C11.648 1.44 12.704 1.44 13.856 1.44C15.0293 1.44 16.2027 1.42933 17.376 1.408C18.5493 1.38667 19.6053 1.36533 20.544 1.344ZM32.351 1.344V1.984C31.6683 2.00533 31.1457 2.09067 30.783 2.24C30.4417 2.368 30.2177 2.624 30.111 3.008C30.0043 3.37067 29.951 3.94666 29.951 4.736V20.608C29.951 21.376 30.0043 21.952 30.111 22.336C30.239 22.72 30.4737 22.976 30.815 23.104C31.1563 23.232 31.6683 23.3173 32.351 23.36V24C31.775 23.9573 31.0497 23.936 30.175 23.936C29.3003 23.9147 28.415 23.904 27.519 23.904C26.4737 23.904 25.503 23.9147 24.607 23.936C23.7323 23.936 23.0177 23.9573 22.463 24V23.36C23.1457 23.3173 23.6577 23.232 23.999 23.104C24.3403 22.976 24.5643 22.72 24.671 22.336C24.799 21.952 24.863 21.376 24.863 20.608V4.736C24.863 3.94666 24.799 3.37067 24.671 3.008C24.5643 2.624 24.3297 2.368 23.967 2.24C23.6257 2.09067 23.1243 2.00533 22.463 1.984V1.344C23.0177 1.36533 23.7323 1.38667 24.607 1.408C25.503 1.42933 26.4737 1.44 27.519 1.44C28.415 1.44 29.3003 1.42933 30.175 1.408C31.0497 1.38667 31.775 1.36533 32.351 1.344ZM55.4543 1.344V1.952C54.7716 2.10133 54.0356 2.4 53.2463 2.848C52.4783 3.296 51.6676 4.02133 50.8143 5.024L44.7983 12.192L46.6543 9.536L54.2703 21.408C54.5689 21.8987 54.8889 22.2933 55.2303 22.592C55.5716 22.8907 56.0196 23.1467 56.5743 23.36V24C55.8276 23.9573 54.9956 23.936 54.0783 23.936C53.1609 23.9147 52.3289 23.904 51.5823 23.904C51.1343 23.904 50.5903 23.9147 49.9503 23.936C49.3103 23.936 48.4996 23.9573 47.5183 24V23.36C48.3929 23.3173 48.9156 23.2 49.0863 23.008C49.2783 22.7947 49.2036 22.432 48.8623 21.92L44.2223 14.4C43.9236 13.9093 43.6569 13.5467 43.4223 13.312C43.1876 13.056 42.9529 12.8853 42.7183 12.8C42.4836 12.6933 42.1743 12.6293 41.7903 12.608V11.936C42.7289 11.9147 43.5609 11.6587 44.2863 11.168C45.0329 10.6773 45.8436 9.93067 46.7183 8.928L48.6063 6.656C49.4169 5.696 49.8863 4.87467 50.0143 4.192C50.1636 3.488 50.0249 2.944 49.5983 2.56C49.1929 2.176 48.5636 1.97333 47.7103 1.952V1.344C48.2436 1.36533 48.7449 1.38667 49.2143 1.408C49.7049 1.408 50.2063 1.41867 50.7183 1.44C51.2516 1.44 51.8276 1.44 52.4463 1.44C53.0649 1.44 53.6196 1.42933 54.1103 1.408C54.6223 1.38667 55.0703 1.36533 55.4543 1.344ZM44.3823 1.344V1.984C43.6996 2.00533 43.1769 2.09067 42.8142 2.24C42.4729 2.368 42.2489 2.624 42.1423 3.008C42.0356 3.37067 41.9823 3.94666 41.9823 4.736V20.608C41.9823 21.376 42.0356 21.952 42.1423 22.336C42.2703 22.72 42.5049 22.976 42.8463 23.104C43.1876 23.232 43.6996 23.3173 44.3823 23.36V24C43.8063 23.9573 43.0809 23.936 42.2063 23.936C41.3316 23.9147 40.4463 23.904 39.5503 23.904C38.5263 23.904 37.5556 23.9147 36.6383 23.936C35.7423 23.936 35.0276 23.9573 34.4943 24V23.36C35.1769 23.3173 35.6889 23.232 36.0303 23.104C36.3716 22.976 36.5956 22.72 36.7023 22.336C36.8303 21.952 36.8943 21.376 36.8943 20.608V4.736C36.8943 3.94666 36.8303 3.37067 36.7023 3.008C36.5956 2.624 36.3609 2.368 35.9983 2.24C35.6569 2.09067 35.1556 2.00533 34.4943 1.984V1.344C35.0276 1.36533 35.7423 1.38667 36.6383 1.408C37.5556 1.42933 38.5263 1.44 39.5503 1.44C40.4463 1.44 41.3316 1.42933 42.2063 1.408C43.0809 1.38667 43.8063 1.36533 44.3823 1.344ZM78.298 1.344V1.952C77.6153 2.10133 76.8793 2.4 76.09 2.848C75.322 3.296 74.5113 4.02133 73.658 5.024L67.642 12.192L69.498 9.536L77.114 21.408C77.4127 21.8987 77.7327 22.2933 78.074 22.592C78.4153 22.8907 78.8633 23.1467 79.418 23.36V24C78.6713 23.9573 77.8393 23.936 76.922 23.936C76.0047 23.9147 75.1727 23.904 74.426 23.904C73.978 23.904 73.434 23.9147 72.794 23.936C72.154 23.936 71.3433 23.9573 70.362 24V23.36C71.2367 23.3173 71.7593 23.2 71.93 23.008C72.122 22.7947 72.0473 22.432 71.706 21.92L67.066 14.4C66.7673 13.9093 66.5007 13.5467 66.266 13.312C66.0313 13.056 65.7967 12.8853 65.562 12.8C65.3273 12.6933 65.018 12.6293 64.634 12.608V11.936C65.5727 11.9147 66.4047 11.6587 67.13 11.168C67.8767 10.6773 68.6873 9.93067 69.562 8.928L71.45 6.656C72.2607 5.696 72.73 4.87467 72.858 4.192C73.0073 3.488 72.8687 2.944 72.442 2.56C72.0367 2.176 71.4073 1.97333 70.554 1.952V1.344C71.0873 1.36533 71.5887 1.38667 72.058 1.408C72.5487 1.408 73.05 1.41867 73.562 1.44C74.0953 1.44 74.6713 1.44 75.29 1.44C75.9087 1.44 76.4633 1.42933 76.954 1.408C77.466 1.38667 77.914 1.36533 78.298 1.344ZM67.226 1.344V1.984C66.5433 2.00533 66.0207 2.09067 65.658 2.24C65.3167 2.368 65.0927 2.624 64.986 3.008C64.8793 3.37067 64.826 3.94666 64.826 4.736V20.608C64.826 21.376 64.8793 21.952 64.986 22.336C65.114 22.72 65.3487 22.976 65.69 23.104C66.0313 23.232 66.5433 23.3173 67.226 23.36V24C66.65 23.9573 65.9247 23.936 65.05 23.936C64.1753 23.9147 63.29 23.904 62.394 23.904C61.37 23.904 60.3993 23.9147 59.482 23.936C58.586 23.936 57.8713 23.9573 57.338 24V23.36C58.0207 23.3173 58.5327 23.232 58.874 23.104C59.2153 22.976 59.4393 22.72 59.546 22.336C59.674 21.952 59.738 21.376 59.738 20.608V4.736C59.738 3.94666 59.674 3.37067 59.546 3.008C59.4393 2.624 59.2047 2.368 58.842 2.24C58.5007 2.09067 57.9993 2.00533 57.338 1.984V1.344C57.8713 1.36533 58.586 1.38667 59.482 1.408C60.3993 1.42933 61.37 1.44 62.394 1.44C63.29 1.44 64.1753 1.42933 65.05 1.408C65.9247 1.38667 66.65 1.36533 67.226 1.344ZM90.4853 0.895998C92.7466 0.895998 94.7199 1.35467 96.4053 2.272C98.1119 3.18933 99.4346 4.512 100.373 6.24C101.312 7.94667 101.781 10.0267 101.781 12.48C101.781 14.8693 101.301 16.96 100.341 18.752C99.3813 20.544 98.0373 21.9413 96.3093 22.944C94.6026 23.9467 92.6506 24.448 90.4533 24.448C88.1919 24.448 86.2079 23.9893 84.5013 23.072C82.8159 22.1547 81.5039 20.832 80.5653 19.104C79.6266 17.376 79.1573 15.296 79.1573 12.864C79.1573 10.4747 79.6373 8.384 80.5973 6.592C81.5786 4.8 82.9119 3.40267 84.5973 2.4C86.3039 1.39733 88.2666 0.895998 90.4853 0.895998ZM90.3573 1.472C89.1626 1.472 88.1173 1.952 87.2213 2.912C86.3466 3.872 85.6639 5.19467 85.1733 6.88C84.7039 8.56533 84.4693 10.5173 84.4693 12.736C84.4693 14.9973 84.7359 16.9707 85.2693 18.656C85.8239 20.32 86.5599 21.6107 87.4773 22.528C88.4159 23.424 89.4506 23.872 90.5813 23.872C91.7759 23.872 92.8106 23.392 93.6853 22.432C94.5813 21.472 95.2639 20.1493 95.7333 18.464C96.2239 16.7573 96.4693 14.8053 96.4693 12.608C96.4693 10.3253 96.1919 8.352 95.6373 6.688C95.1039 5.024 94.3679 3.744 93.4293 2.848C92.5119 1.93067 91.4879 1.472 90.3573 1.472ZM125.082 1.344V1.984C124.4 2.06933 123.888 2.25067 123.546 2.528C123.205 2.784 122.97 3.2 122.842 3.776C122.736 4.352 122.682 5.16267 122.682 6.208V24.064C122.426 24.0427 122.16 24.032 121.882 24.032C121.626 24.032 121.349 24.0427 121.05 24.064L107.162 6.464V18.752C107.162 19.9253 107.226 20.832 107.354 21.472C107.482 22.0907 107.76 22.5387 108.186 22.816C108.634 23.072 109.328 23.2533 110.266 23.36V24C109.861 23.9573 109.328 23.936 108.666 23.936C108.005 23.9147 107.386 23.904 106.81 23.904C106.32 23.904 105.818 23.9147 105.306 23.936C104.794 23.936 104.368 23.9573 104.026 24V23.36C104.709 23.2533 105.221 23.072 105.562 22.816C105.904 22.56 106.128 22.144 106.234 21.568C106.362 20.9707 106.426 20.16 106.426 19.136V4.736C106.426 3.94666 106.362 3.37067 106.234 3.008C106.128 2.624 105.893 2.368 105.53 2.24C105.189 2.09067 104.688 2.00533 104.026 1.984V1.344C104.368 1.36533 104.794 1.38667 105.306 1.408C105.818 1.42933 106.32 1.44 106.81 1.44C107.322 1.44 107.813 1.42933 108.282 1.408C108.752 1.38667 109.178 1.36533 109.562 1.344L121.946 16.608V6.592C121.946 5.41867 121.882 4.52267 121.754 3.904C121.626 3.264 121.338 2.80533 120.89 2.528C120.464 2.25067 119.781 2.06933 118.842 1.984V1.344C119.248 1.36533 119.781 1.38667 120.442 1.408C121.104 1.42933 121.722 1.44 122.298 1.44C122.81 1.44 123.312 1.42933 123.802 1.408C124.314 1.38667 124.741 1.36533 125.082 1.344Z" fill="white"/>
</svg>
